<svg xmlns="http://www.w3.org/2000/svg" xmlns:xlink="http://www.w3.org/1999/xlink" width="500" zoomAndPan="magnify" viewBox="0 0 375 374.999991" height="500" preserveAspectRatio="xMidYMid meet" version="1.0"><defs><clipPath id="1f2ad6e02b"><path d="M 146.167969 114.515625 L 228.667969 114.515625 L 228.667969 197.015625 L 146.167969 197.015625 Z M 146.167969 114.515625 " clip-rule="nonzero"/></clipPath></defs><g clip-path="url(#1f2ad6e02b)"><path fill="#000000" d="M 187.417969 114.515625 C 186.070312 114.515625 184.71875 114.582031 183.375 114.714844 C 182.03125 114.847656 180.695312 115.046875 179.371094 115.308594 C 178.046875 115.574219 176.738281 115.898438 175.445312 116.292969 C 174.152344 116.683594 172.882812 117.140625 171.632812 117.65625 C 170.386719 118.171875 169.164062 118.75 167.972656 119.386719 C 166.78125 120.023438 165.625 120.71875 164.503906 121.46875 C 163.378906 122.21875 162.296875 123.023438 161.25 123.878906 C 160.207031 124.738281 159.207031 125.644531 158.25 126.597656 C 157.296875 127.554688 156.390625 128.554688 155.53125 129.597656 C 154.675781 130.640625 153.871094 131.726562 153.121094 132.847656 C 152.371094 133.972656 151.675781 135.128906 151.039062 136.320312 C 150.402344 137.511719 149.828125 138.730469 149.308594 139.980469 C 148.792969 141.230469 148.335938 142.5 147.945312 143.792969 C 147.554688 145.085938 147.226562 146.394531 146.960938 147.71875 C 146.699219 149.042969 146.5 150.378906 146.367188 151.722656 C 146.234375 153.066406 146.167969 154.414062 146.167969 155.765625 C 146.167969 157.117188 146.234375 158.464844 146.367188 159.808594 C 146.5 161.152344 146.699219 162.488281 146.960938 163.8125 C 147.226562 165.136719 147.554688 166.449219 147.945312 167.742188 C 148.335938 169.03125 148.792969 170.304688 149.308594 171.550781 C 149.828125 172.800781 150.402344 174.019531 151.039062 175.210938 C 151.675781 176.402344 152.371094 177.558594 153.121094 178.683594 C 153.871094 179.808594 154.675781 180.890625 155.53125 181.933594 C 156.390625 182.980469 157.296875 183.980469 158.25 184.933594 C 159.207031 185.890625 160.207031 186.796875 161.25 187.652344 C 162.296875 188.511719 163.378906 189.3125 164.503906 190.0625 C 165.625 190.816406 166.78125 191.507812 167.972656 192.144531 C 169.164062 192.78125 170.386719 193.359375 171.632812 193.875 C 172.882812 194.394531 174.152344 194.847656 175.445312 195.238281 C 176.738281 195.632812 178.046875 195.960938 179.371094 196.222656 C 180.695312 196.488281 182.03125 196.683594 183.375 196.816406 C 184.71875 196.949219 186.070312 197.015625 187.417969 197.015625 C 188.769531 197.015625 190.117188 196.949219 191.460938 196.816406 C 192.808594 196.683594 194.140625 196.488281 195.46875 196.222656 C 196.792969 195.960938 198.101562 195.632812 199.394531 195.238281 C 200.6875 194.847656 201.957031 194.394531 203.203125 193.875 C 204.453125 193.359375 205.671875 192.78125 206.863281 192.144531 C 208.054688 191.507812 209.214844 190.816406 210.335938 190.0625 C 211.460938 189.3125 212.542969 188.511719 213.589844 187.652344 C 214.632812 186.796875 215.632812 185.890625 216.585938 184.933594 C 217.542969 183.980469 218.449219 182.980469 219.304688 181.933594 C 220.164062 180.890625 220.96875 179.808594 221.71875 178.683594 C 222.46875 177.558594 223.160156 176.402344 223.796875 175.210938 C 224.433594 174.019531 225.011719 172.800781 225.53125 171.550781 C 226.046875 170.304688 226.5 169.03125 226.894531 167.742188 C 227.285156 166.449219 227.613281 165.136719 227.875 163.8125 C 228.140625 162.488281 228.339844 161.152344 228.472656 159.808594 C 228.601562 158.464844 228.667969 157.117188 228.667969 155.765625 C 228.667969 154.414062 228.601562 153.066406 228.46875 151.722656 C 228.335938 150.378906 228.136719 149.042969 227.875 147.71875 C 227.609375 146.394531 227.28125 145.085938 226.890625 143.792969 C 226.496094 142.5 226.042969 141.230469 225.523438 139.984375 C 225.007812 138.734375 224.429688 137.515625 223.792969 136.324219 C 223.15625 135.132812 222.460938 133.976562 221.710938 132.855469 C 220.960938 131.730469 220.15625 130.648438 219.300781 129.601562 C 218.441406 128.558594 217.535156 127.558594 216.582031 126.605469 C 215.625 125.648438 214.625 124.742188 213.582031 123.886719 C 212.539062 123.027344 211.453125 122.226562 210.332031 121.472656 C 209.207031 120.722656 208.050781 120.03125 206.859375 119.394531 C 205.667969 118.753906 204.449219 118.179688 203.203125 117.660156 C 201.953125 117.144531 200.683594 116.6875 199.390625 116.296875 C 198.097656 115.902344 196.789062 115.574219 195.464844 115.3125 C 194.140625 115.046875 192.804688 114.847656 191.460938 114.714844 C 190.117188 114.582031 188.769531 114.515625 187.417969 114.515625 Z M 195.476562 176.25 C 195.476562 176.398438 195.445312 176.546875 195.390625 176.683594 C 195.332031 176.824219 195.25 176.945312 195.144531 177.054688 C 195.035156 177.160156 194.914062 177.242188 194.773438 177.300781 C 194.632812 177.359375 194.488281 177.386719 194.339844 177.386719 L 184.507812 177.386719 C 184.359375 177.386719 184.214844 177.359375 184.074219 177.300781 C 183.933594 177.242188 183.8125 177.160156 183.703125 177.054688 C 183.597656 176.945312 183.515625 176.824219 183.457031 176.683594 C 183.398438 176.546875 183.371094 176.398438 183.371094 176.25 L 183.371094 147.769531 L 176.324219 151 C 176.007812 151.148438 175.691406 151.148438 175.375 151 C 175.058594 150.855469 174.851562 150.617188 174.757812 150.28125 L 172.414062 142.050781 C 172.339844 141.792969 172.355469 141.535156 172.460938 141.289062 C 172.570312 141.039062 172.742188 140.851562 172.980469 140.726562 L 185.5 134.269531 C 185.664062 134.1875 185.835938 134.144531 186.019531 134.144531 L 194.335938 134.144531 C 194.484375 134.144531 194.632812 134.175781 194.769531 134.230469 C 194.910156 134.289062 195.03125 134.371094 195.140625 134.480469 C 195.246094 134.585938 195.328125 134.707031 195.386719 134.847656 C 195.445312 134.988281 195.472656 135.132812 195.472656 135.285156 Z M 195.476562 176.25 " fill-opacity="1" fill-rule="evenodd"/></g></svg>