<svg xmlns="http://www.w3.org/2000/svg" xmlns:xlink="http://www.w3.org/1999/xlink" width="500" zoomAndPan="magnify" viewBox="0 0 375 374.999991" height="500" preserveAspectRatio="xMidYMid meet" version="1.0"><defs><clipPath id="681fb94aab"><path d="M 146.167969 113.710938 L 228.667969 113.710938 L 228.667969 196.210938 L 146.167969 196.210938 Z M 146.167969 113.710938 " clip-rule="nonzero"/></clipPath></defs><g clip-path="url(#681fb94aab)"><path fill="#000000" d="M 187.417969 113.710938 C 186.070312 113.710938 184.71875 113.777344 183.375 113.910156 C 182.03125 114.039062 180.695312 114.238281 179.371094 114.503906 C 178.046875 114.765625 176.738281 115.09375 175.445312 115.484375 C 174.152344 115.878906 172.882812 116.332031 171.632812 116.851562 C 170.386719 117.367188 169.164062 117.945312 167.972656 118.582031 C 166.78125 119.21875 165.625 119.910156 164.503906 120.660156 C 163.378906 121.410156 162.296875 122.214844 161.25 123.074219 C 160.207031 123.929688 159.207031 124.835938 158.25 125.792969 C 157.296875 126.746094 156.390625 127.746094 155.53125 128.789062 C 154.675781 129.835938 153.871094 130.917969 153.121094 132.042969 C 152.371094 133.164062 151.675781 134.324219 151.039062 135.515625 C 150.402344 136.707031 149.828125 137.925781 149.308594 139.175781 C 148.792969 140.421875 148.335938 141.691406 147.945312 142.984375 C 147.554688 144.277344 147.226562 145.585938 146.960938 146.914062 C 146.699219 148.238281 146.5 149.570312 146.367188 150.917969 C 146.234375 152.261719 146.167969 153.609375 146.167969 154.960938 C 146.167969 156.3125 146.234375 157.660156 146.367188 159.003906 C 146.5 160.347656 146.699219 161.683594 146.960938 163.007812 C 147.226562 164.332031 147.554688 165.640625 147.945312 166.933594 C 148.335938 168.226562 148.792969 169.496094 149.308594 170.746094 C 149.828125 171.992188 150.402344 173.214844 151.039062 174.40625 C 151.675781 175.597656 152.371094 176.753906 153.121094 177.875 C 153.871094 179 154.675781 180.085938 155.53125 181.128906 C 156.390625 182.171875 157.296875 183.171875 158.25 184.128906 C 159.207031 185.082031 160.207031 185.988281 161.25 186.847656 C 162.296875 187.703125 163.378906 188.507812 164.503906 189.257812 C 165.625 190.007812 166.78125 190.703125 167.972656 191.339844 C 169.164062 191.976562 170.386719 192.550781 171.632812 193.070312 C 172.882812 193.585938 174.152344 194.042969 175.445312 194.433594 C 176.738281 194.824219 178.046875 195.152344 179.371094 195.417969 C 180.695312 195.679688 182.03125 195.878906 183.375 196.011719 C 184.71875 196.144531 186.070312 196.210938 187.417969 196.210938 C 188.769531 196.210938 190.117188 196.144531 191.460938 196.011719 C 192.808594 195.878906 194.140625 195.679688 195.46875 195.417969 C 196.792969 195.152344 198.101562 194.824219 199.394531 194.433594 C 200.6875 194.042969 201.957031 193.585938 203.203125 193.070312 C 204.453125 192.550781 205.671875 191.976562 206.863281 191.339844 C 208.054688 190.703125 209.214844 190.007812 210.335938 189.257812 C 211.460938 188.507812 212.542969 187.703125 213.589844 186.847656 C 214.632812 185.988281 215.632812 185.082031 216.585938 184.128906 C 217.542969 183.171875 218.449219 182.171875 219.304688 181.128906 C 220.164062 180.085938 220.96875 179 221.71875 177.875 C 222.46875 176.753906 223.160156 175.597656 223.796875 174.40625 C 224.433594 173.214844 225.011719 171.992188 225.53125 170.746094 C 226.046875 169.496094 226.5 168.226562 226.894531 166.933594 C 227.285156 165.640625 227.613281 164.332031 227.875 163.007812 C 228.140625 161.683594 228.339844 160.347656 228.472656 159.003906 C 228.601562 157.660156 228.667969 156.3125 228.667969 154.960938 C 228.667969 153.609375 228.601562 152.261719 228.46875 150.917969 C 228.335938 149.574219 228.136719 148.238281 227.875 146.914062 C 227.609375 145.589844 227.28125 144.28125 226.890625 142.988281 C 226.496094 141.695312 226.042969 140.425781 225.523438 139.175781 C 225.007812 137.929688 224.429688 136.710938 223.792969 135.519531 C 223.15625 134.328125 222.460938 133.171875 221.710938 132.046875 C 220.960938 130.925781 220.15625 129.839844 219.300781 128.796875 C 218.441406 127.753906 217.535156 126.753906 216.582031 125.796875 C 215.625 124.84375 214.625 123.9375 213.582031 123.078125 C 212.539062 122.222656 211.453125 121.417969 210.332031 120.667969 C 209.207031 119.917969 208.050781 119.222656 206.859375 118.585938 C 205.667969 117.949219 204.449219 117.371094 203.203125 116.855469 C 201.953125 116.335938 200.683594 115.882812 199.390625 115.492188 C 198.097656 115.097656 196.789062 114.769531 195.464844 114.503906 C 194.140625 114.242188 192.804688 114.042969 191.460938 113.910156 C 190.117188 113.777344 188.769531 113.710938 187.417969 113.710938 Z M 203.960938 174.214844 C 203.960938 174.367188 203.933594 174.511719 203.875 174.652344 C 203.816406 174.792969 203.734375 174.914062 203.628906 175.019531 C 203.523438 175.128906 203.398438 175.210938 203.257812 175.269531 C 203.121094 175.324219 202.976562 175.355469 202.824219 175.355469 L 172.273438 175.355469 C 172.121094 175.355469 171.976562 175.324219 171.839844 175.269531 C 171.699219 175.210938 171.574219 175.128906 171.46875 175.019531 C 171.363281 174.914062 171.28125 174.792969 171.222656 174.652344 C 171.164062 174.511719 171.136719 174.367188 171.136719 174.214844 L 171.136719 167.691406 C 171.136719 167.363281 171.257812 167.085938 171.5 166.859375 L 187.417969 152.074219 C 188.609375 151.0625 189.664062 149.925781 190.582031 148.660156 C 191.144531 147.855469 191.429688 146.960938 191.4375 145.976562 C 191.46875 145.441406 191.394531 144.921875 191.210938 144.421875 C 191.027344 143.917969 190.75 143.472656 190.378906 143.089844 C 189.488281 142.320312 188.457031 141.976562 187.285156 142.054688 C 186.65625 142.046875 186.050781 142.160156 185.464844 142.398438 C 184.882812 142.632812 184.367188 142.972656 183.921875 143.417969 C 182.855469 144.492188 182.191406 145.777344 181.933594 147.269531 C 181.898438 147.421875 181.835938 147.5625 181.746094 147.691406 C 181.652344 147.820312 181.539062 147.921875 181.40625 148.003906 C 181.269531 148.085938 181.125 148.136719 180.96875 148.15625 C 180.8125 148.175781 180.660156 148.167969 180.507812 148.125 L 171.714844 145.59375 C 171.445312 145.515625 171.234375 145.359375 171.078125 145.125 C 170.925781 144.890625 170.867188 144.632812 170.902344 144.355469 C 171.144531 142.519531 171.714844 140.789062 172.613281 139.167969 C 173.507812 137.546875 174.671875 136.148438 176.097656 134.964844 C 177.613281 133.65625 179.320312 132.664062 181.207031 131.992188 C 183.097656 131.320312 185.042969 131.007812 187.046875 131.0625 C 189.167969 130.960938 191.242188 131.230469 193.269531 131.863281 C 195.296875 132.5 197.152344 133.464844 198.835938 134.761719 C 199.601562 135.410156 200.28125 136.132812 200.878906 136.9375 C 201.476562 137.742188 201.972656 138.605469 202.371094 139.527344 C 202.769531 140.445312 203.054688 141.398438 203.230469 142.386719 C 203.40625 143.371094 203.46875 144.367188 203.414062 145.367188 C 203.449219 147.980469 202.796875 150.414062 201.457031 152.660156 C 199.839844 155.1875 197.898438 157.433594 195.628906 159.402344 L 190.222656 164.257812 L 202.808594 164.257812 C 202.960938 164.257812 203.105469 164.289062 203.246094 164.347656 C 203.382812 164.402344 203.507812 164.484375 203.613281 164.59375 C 203.722656 164.699219 203.804688 164.824219 203.859375 164.960938 C 203.917969 165.101562 203.949219 165.246094 203.949219 165.398438 Z M 203.960938 174.214844 " fill-opacity="1" fill-rule="evenodd"/></g></svg>