<svg xmlns="http://www.w3.org/2000/svg" xmlns:xlink="http://www.w3.org/1999/xlink" width="500" zoomAndPan="magnify" viewBox="0 0 375 374.999991" height="500" preserveAspectRatio="xMidYMid meet" version="1.0"><defs><clipPath id="cd99d582c4"><path d="M 146.574219 126.113281 L 229.074219 126.113281 L 229.074219 208.613281 L 146.574219 208.613281 Z M 146.574219 126.113281 " clip-rule="nonzero"/></clipPath></defs><g clip-path="url(#cd99d582c4)"><path fill="#000000" d="M 187.824219 126.113281 C 186.472656 126.113281 185.125 126.179688 183.78125 126.3125 C 182.433594 126.445312 181.101562 126.640625 179.773438 126.90625 C 178.449219 127.167969 177.140625 127.496094 175.847656 127.890625 C 174.554688 128.28125 173.285156 128.734375 172.035156 129.253906 C 170.789062 129.769531 169.570312 130.347656 168.378906 130.984375 C 167.1875 131.621094 166.027344 132.3125 164.90625 133.066406 C 163.78125 133.816406 162.699219 134.621094 161.652344 135.476562 C 160.609375 136.332031 159.609375 137.238281 158.65625 138.195312 C 157.699219 139.148438 156.792969 140.148438 155.9375 141.195312 C 155.078125 142.238281 154.273438 143.324219 153.523438 144.445312 C 152.773438 145.570312 152.082031 146.726562 151.441406 147.917969 C 150.804688 149.109375 150.230469 150.328125 149.710938 151.578125 C 149.195312 152.824219 148.742188 154.097656 148.347656 155.386719 C 147.957031 156.679688 147.628906 157.992188 147.363281 159.316406 C 147.101562 160.640625 146.902344 161.976562 146.769531 163.320312 C 146.640625 164.664062 146.574219 166.011719 146.574219 167.363281 C 146.574219 168.714844 146.640625 170.0625 146.769531 171.40625 C 146.902344 172.75 147.101562 174.085938 147.363281 175.410156 C 147.628906 176.734375 147.957031 178.042969 148.347656 179.335938 C 148.742188 180.628906 149.195312 181.902344 149.710938 183.148438 C 150.230469 184.398438 150.804688 185.617188 151.441406 186.808594 C 152.082031 188 152.773438 189.15625 153.523438 190.28125 C 154.273438 191.402344 155.078125 192.488281 155.9375 193.53125 C 156.792969 194.574219 157.699219 195.574219 158.65625 196.53125 C 159.609375 197.488281 160.609375 198.390625 161.652344 199.25 C 162.699219 200.105469 163.78125 200.910156 164.90625 201.660156 C 166.027344 202.410156 167.1875 203.105469 168.378906 203.742188 C 169.570312 204.378906 170.789062 204.957031 172.035156 205.472656 C 173.285156 205.988281 174.554688 206.445312 175.847656 206.835938 C 177.140625 207.230469 178.449219 207.558594 179.773438 207.820312 C 181.101562 208.082031 182.433594 208.28125 183.78125 208.414062 C 185.125 208.546875 186.472656 208.613281 187.824219 208.613281 C 189.171875 208.613281 190.519531 208.546875 191.867188 208.414062 C 193.210938 208.28125 194.546875 208.082031 195.871094 207.820312 C 197.195312 207.558594 198.503906 207.230469 199.796875 206.835938 C 201.089844 206.445312 202.359375 205.988281 203.609375 205.472656 C 204.855469 204.957031 206.078125 204.378906 207.269531 203.742188 C 208.460938 203.105469 209.617188 202.410156 210.738281 201.660156 C 211.863281 200.910156 212.945312 200.105469 213.992188 199.25 C 215.035156 198.390625 216.035156 197.488281 216.992188 196.53125 C 217.945312 195.574219 218.851562 194.574219 219.710938 193.53125 C 220.566406 192.488281 221.371094 191.402344 222.121094 190.28125 C 222.871094 189.15625 223.566406 188 224.203125 186.808594 C 224.839844 185.617188 225.414062 184.398438 225.933594 183.148438 C 226.449219 181.902344 226.902344 180.628906 227.296875 179.335938 C 227.6875 178.042969 228.015625 176.734375 228.28125 175.410156 C 228.542969 174.085938 228.742188 172.75 228.875 171.40625 C 229.007812 170.0625 229.074219 168.714844 229.074219 167.363281 C 229.070312 166.011719 229.003906 164.664062 228.871094 163.320312 C 228.738281 161.976562 228.539062 160.640625 228.277344 159.316406 C 228.011719 157.992188 227.683594 156.683594 227.292969 155.390625 C 226.898438 154.097656 226.445312 152.828125 225.925781 151.582031 C 225.410156 150.332031 224.832031 149.113281 224.195312 147.921875 C 223.558594 146.730469 222.863281 145.574219 222.113281 144.449219 C 221.363281 143.328125 220.558594 142.242188 219.703125 141.199219 C 218.847656 140.15625 217.941406 139.15625 216.984375 138.199219 C 216.03125 137.246094 215.03125 136.339844 213.984375 135.480469 C 212.941406 134.625 211.859375 133.820312 210.734375 133.070312 C 209.613281 132.320312 208.453125 131.625 207.265625 130.988281 C 206.074219 130.351562 204.851562 129.777344 203.605469 129.257812 C 202.355469 128.742188 201.085938 128.285156 199.792969 127.894531 C 198.503906 127.5 197.195312 127.171875 195.867188 126.910156 C 194.542969 126.644531 193.210938 126.445312 191.863281 126.3125 C 190.519531 126.179688 189.171875 126.113281 187.824219 126.113281 Z M 200.285156 186.191406 C 198.703125 187.691406 196.890625 188.832031 194.851562 189.609375 C 192.8125 190.390625 190.703125 190.75 188.523438 190.691406 C 186.261719 190.8125 184.0625 190.515625 181.914062 189.796875 C 179.769531 189.078125 177.832031 187.988281 176.105469 186.527344 C 174.640625 185.238281 173.4375 183.742188 172.492188 182.035156 C 171.546875 180.328125 170.914062 178.511719 170.601562 176.585938 C 170.550781 176.300781 170.605469 176.035156 170.761719 175.789062 C 170.914062 175.542969 171.132812 175.382812 171.410156 175.304688 L 180.191406 172.792969 C 180.34375 172.75 180.5 172.742188 180.65625 172.765625 C 180.816406 172.789062 180.960938 172.839844 181.097656 172.925781 C 181.230469 173.011719 181.34375 173.117188 181.433594 173.25 C 181.523438 173.382812 181.582031 173.527344 181.613281 173.683594 C 181.914062 175.378906 182.671875 176.832031 183.886719 178.046875 C 184.402344 178.609375 185.007812 179.039062 185.707031 179.347656 C 186.402344 179.652344 187.128906 179.808594 187.890625 179.808594 C 188.613281 179.851562 189.316406 179.75 189.996094 179.507812 C 190.675781 179.261719 191.28125 178.894531 191.8125 178.402344 C 192.035156 178.1875 192.234375 177.957031 192.40625 177.703125 C 192.582031 177.449219 192.730469 177.179688 192.851562 176.898438 C 192.972656 176.613281 193.066406 176.320312 193.128906 176.019531 C 193.191406 175.71875 193.222656 175.414062 193.226562 175.105469 C 193.230469 174.800781 193.203125 174.492188 193.144531 174.191406 C 193.085938 173.890625 193 173.59375 192.886719 173.308594 C 192.769531 173.023438 192.625 172.753906 192.457031 172.496094 C 192.285156 172.238281 192.09375 172.003906 191.875 171.785156 C 191.367188 171.304688 190.785156 170.945312 190.128906 170.710938 C 189.46875 170.472656 188.792969 170.375 188.09375 170.417969 C 186.960938 170.378906 185.875 170.601562 184.847656 171.082031 C 184.695312 171.15625 184.535156 171.199219 184.363281 171.203125 C 184.195312 171.210938 184.03125 171.175781 183.875 171.109375 C 183.71875 171.042969 183.585938 170.945312 183.472656 170.816406 C 183.363281 170.6875 183.285156 170.542969 183.238281 170.378906 L 181.605469 164.632812 C 181.5 164.257812 181.566406 163.921875 181.804688 163.617188 L 187.117188 156.886719 L 173.03125 156.886719 C 172.878906 156.886719 172.734375 156.855469 172.59375 156.796875 C 172.453125 156.742188 172.332031 156.660156 172.226562 156.550781 C 172.117188 156.445312 172.035156 156.324219 171.976562 156.183594 C 171.921875 156.042969 171.890625 155.898438 171.890625 155.746094 L 171.890625 146.878906 C 171.890625 146.730469 171.921875 146.585938 171.976562 146.445312 C 172.035156 146.304688 172.117188 146.183594 172.226562 146.074219 C 172.332031 145.96875 172.453125 145.886719 172.59375 145.828125 C 172.734375 145.769531 172.878906 145.742188 173.03125 145.742188 L 202.492188 145.742188 C 202.644531 145.742188 202.789062 145.769531 202.929688 145.828125 C 203.066406 145.886719 203.191406 145.96875 203.296875 146.074219 C 203.40625 146.183594 203.488281 146.304688 203.542969 146.445312 C 203.601562 146.585938 203.632812 146.730469 203.632812 146.878906 L 203.632812 153.421875 C 203.632812 153.722656 203.53125 153.980469 203.328125 154.199219 L 196.027344 162.046875 C 198.410156 162.886719 200.414062 164.269531 202.046875 166.195312 C 203.070312 167.445312 203.839844 168.835938 204.359375 170.363281 C 204.878906 171.894531 205.109375 173.464844 205.054688 175.082031 C 205.074219 176.121094 204.984375 177.15625 204.785156 178.179688 C 204.582031 179.199219 204.277344 180.191406 203.867188 181.148438 C 203.453125 182.105469 202.949219 183.011719 202.34375 183.859375 C 201.742188 184.710938 201.054688 185.484375 200.285156 186.191406 Z M 200.285156 186.191406 " fill-opacity="1" fill-rule="evenodd"/></g></svg>